M48
; DRILL file {KiCad 5.1.9+dfsg1-1} date Tue Sep  7 23:15:55 2021
; FORMAT={-:-/ absolute / inch / decimal}
; #@! TF.CreationDate,2021-09-07T23:15:55+02:00
; #@! TF.GenerationSoftware,Kicad,Pcbnew,5.1.9+dfsg1-1
; #@! TF.FileFunction,Plated,1,2,PTH
FMAT,2
INCH
T1C0.0157
T2C0.0394
T3C0.0591
T4C0.1587
%
G90
G05
T1
X-1.5246Y-2.4783
X-1.3583Y-3.7667
X-1.3157Y-3.8622
X-1.2569Y-2.8337
X-1.0916Y-4.0541
X-1.0906Y-4.0148
X-1.0787Y-2.4341
X-0.9515Y-2.717
X-0.8848Y-4.0167
X-0.8816Y-4.056
X-0.6772Y-2.5955
X-0.6004Y-4.4183
X-0.4695Y-2.6083
X-0.3799Y-4.2156
X-0.3691Y-3.8543
X-0.3425Y-3.8159
X-0.3425Y-3.8947
X-0.3406Y-3.9528
X-0.3151Y-2.217
X-0.3151Y-2.317
X-0.1781Y-2.5561
X-0.126Y-3.811
X-0.123Y-3.9577
X-0.1171Y-4.2156
X-0.0551Y-3.8258
X-0.0217Y-3.8681
X-0.0069Y-2.2756
X0.0945Y-3.4862
X0.1171Y-3.2254
X0.2175Y-2.8474
X0.3425Y-2.5118
X0.4094Y-3.4636
X0.4134Y-2.9774
X0.4154Y-3.0384
X0.4163Y-3.9114
X0.4183Y-3.2343
X0.4193Y-3.9685
X0.4193Y-4.2165
X0.4242Y-2.2992
X0.5039Y-3.2854
X0.5197Y-2.4409
X0.5197Y-2.5659
X0.5197Y-2.7697
X0.5197Y-2.8484
X0.5945Y-2.4104
X0.6073Y-2.253
X0.6073Y-2.2992
X0.6073Y-2.9813
X0.6112Y-3.0433
X0.6201Y-3.2382
X0.623Y-3.2854
X0.624Y-3.9675
X0.625Y-3.9114
X0.6299Y-3.7343
X0.6309Y-3.4646
X0.6752Y-4.2205
X0.7352Y-3.0148
X0.9281Y-2.253
X0.9362Y-2.3465
T2
X-1.687Y-3.2213
X-1.687Y-3.3213
X-1.687Y-3.4213
X-1.687Y-3.5213
T3
X-1.4685Y-4.3157
X-1.2185Y-4.2157
X-0.7114Y-4.3161
X-0.4614Y-4.2161
X0.0461Y-3.5594
X0.0465Y-4.3161
X0.0469Y-2.802
X0.2961Y-3.4594
X0.2965Y-4.2161
X0.2969Y-2.702
X0.8031Y-3.5594
X0.8035Y-2.8024
X0.8035Y-4.3161
X1.0531Y-3.4594
X1.0535Y-2.7024
X1.0535Y-4.2161
T4
X-1.6573Y-2.0892
X-1.6573Y-4.6186
X1.1912Y-2.0892
X1.1912Y-4.6186
T0
M30
