%TF.GenerationSoftware,KiCad,Pcbnew,5.1.9+dfsg1-1*%
%TF.CreationDate,2021-09-07T23:13:06+02:00*%
%TF.ProjectId,streamdeck,73747265-616d-4646-9563-6b2e6b696361,rev?*%
%TF.SameCoordinates,Original*%
%TF.FileFunction,Profile,NP*%
%FSLAX46Y46*%
G04 Gerber Fmt 4.6, Leading zero omitted, Abs format (unit mm)*
G04 Created by KiCad (PCBNEW 5.1.9+dfsg1-1) date 2021-09-07 23:13:06*
%MOMM*%
%LPD*%
G01*
G04 APERTURE LIST*
%TA.AperFunction,Profile*%
%ADD10C,0.100000*%
%TD*%
G04 APERTURE END LIST*
D10*
%TO.C,Ref\u002A\u002A*%
X-42081505Y-49486863D02*
X-42266899Y-49491520D01*
X-42266899Y-49491520D02*
X-42449805Y-49505358D01*
X-42449805Y-49505358D02*
X-42629960Y-49528112D01*
X-42629960Y-49528112D02*
X-42807204Y-49559597D01*
X-42807204Y-49559597D02*
X-42981273Y-49599576D01*
X-42981273Y-49599576D02*
X-43151955Y-49647835D01*
X-43151955Y-49647835D02*
X-43319048Y-49704139D01*
X-43319048Y-49704139D02*
X-43482301Y-49768274D01*
X-43482301Y-49768274D02*
X-43641500Y-49840029D01*
X-43641500Y-49840029D02*
X-43796427Y-49919165D01*
X-43796427Y-49919165D02*
X-43946855Y-50005446D01*
X-43946855Y-50005446D02*
X-44092566Y-50098685D01*
X-44092566Y-50098685D02*
X-44233335Y-50198644D01*
X-44233335Y-50198644D02*
X-44368942Y-50305113D01*
X-44368942Y-50305113D02*
X-44499164Y-50417851D01*
X-44499164Y-50417851D02*
X-44623775Y-50536623D01*
X-44623775Y-50536623D02*
X-44742560Y-50661241D01*
X-44742560Y-50661241D02*
X-44855290Y-50791469D01*
X-44855290Y-50791469D02*
X-44961745Y-50927068D01*
X-44961745Y-50927068D02*
X-45061705Y-51067826D01*
X-45061705Y-51067826D02*
X-45154944Y-51213558D01*
X-45154944Y-51213558D02*
X-45241243Y-51363974D01*
X-45241243Y-51363974D02*
X-45320377Y-51518914D01*
X-45320377Y-51518914D02*
X-45392124Y-51678113D01*
X-45392124Y-51678113D02*
X-45456264Y-51841361D01*
X-45456264Y-51841361D02*
X-45512573Y-52008445D01*
X-45512573Y-52008445D02*
X-45560828Y-52179127D01*
X-45560828Y-52179127D02*
X-45600809Y-52353197D01*
X-45600809Y-52353197D02*
X-45632291Y-52530441D01*
X-45632291Y-52530441D02*
X-45655053Y-52710622D01*
X-45655053Y-52710622D02*
X-45668875Y-52893502D01*
X-45668875Y-52893502D02*
X-45673532Y-53078895D01*
X-45673532Y-53078895D02*
X-45673532Y-117298745D01*
X-45673532Y-117298745D02*
X-45668875Y-117483953D01*
X-45668875Y-117483953D02*
X-45655053Y-117667045D01*
X-45655053Y-117667045D02*
X-45632291Y-117847226D01*
X-45632291Y-117847226D02*
X-45600809Y-118024232D01*
X-45600809Y-118024232D02*
X-45560828Y-118198327D01*
X-45560828Y-118198327D02*
X-45512573Y-118369248D01*
X-45512573Y-118369248D02*
X-45456264Y-118536200D01*
X-45456264Y-118536200D02*
X-45392124Y-118699448D01*
X-45392124Y-118699448D02*
X-45320377Y-118858727D01*
X-45320377Y-118858727D02*
X-45241243Y-119013508D01*
X-45241243Y-119013508D02*
X-45154944Y-119164055D01*
X-45154944Y-119164055D02*
X-45061705Y-119309841D01*
X-45061705Y-119309841D02*
X-44961745Y-119450599D01*
X-44961745Y-119450599D02*
X-44855290Y-119586065D01*
X-44855290Y-119586065D02*
X-44742560Y-119716240D01*
X-44742560Y-119716240D02*
X-44623775Y-119840859D01*
X-44623775Y-119840859D02*
X-44499164Y-119959656D01*
X-44499164Y-119959656D02*
X-44368942Y-120072369D01*
X-44368942Y-120072369D02*
X-44233335Y-120178996D01*
X-44233335Y-120178996D02*
X-44092566Y-120278744D01*
X-44092566Y-120278744D02*
X-43946855Y-120372141D01*
X-43946855Y-120372141D02*
X-43796427Y-120458395D01*
X-43796427Y-120458395D02*
X-43641500Y-120537506D01*
X-43641500Y-120537506D02*
X-43482301Y-120609208D01*
X-43482301Y-120609208D02*
X-43319048Y-120673501D01*
X-43319048Y-120673501D02*
X-43151955Y-120729858D01*
X-43151955Y-120729858D02*
X-42981273Y-120778012D01*
X-42981273Y-120778012D02*
X-42807204Y-120817964D01*
X-42807204Y-120817964D02*
X-42629960Y-120849449D01*
X-42629960Y-120849449D02*
X-42449805Y-120872203D01*
X-42449805Y-120872203D02*
X-42266899Y-120885962D01*
X-42266899Y-120885962D02*
X-42081505Y-120890724D01*
X-42081505Y-120890724D02*
X-29388242Y-120890724D01*
X-29388242Y-120890724D02*
X-29361122Y-120728799D01*
X-29361122Y-120728799D02*
X-29326938Y-120569256D01*
X-29326938Y-120569256D02*
X-29285822Y-120412623D01*
X-29285822Y-120412623D02*
X-29237985Y-120258635D01*
X-29237985Y-120258635D02*
X-29183587Y-120108088D01*
X-29183587Y-120108088D02*
X-29122759Y-119960450D01*
X-29122759Y-119960450D02*
X-29055688Y-119816517D01*
X-29055688Y-119816517D02*
X-28982530Y-119676023D01*
X-28982530Y-119676023D02*
X-28903499Y-119539234D01*
X-28903499Y-119539234D02*
X-28818701Y-119406413D01*
X-28818701Y-119406413D02*
X-28728319Y-119277826D01*
X-28728319Y-119277826D02*
X-28632540Y-119153207D01*
X-28632540Y-119153207D02*
X-28531522Y-119033087D01*
X-28531522Y-119033087D02*
X-28425424Y-118917729D01*
X-28425424Y-118917729D02*
X-28314432Y-118807133D01*
X-28314432Y-118807133D02*
X-28198677Y-118701300D01*
X-28198677Y-118701300D02*
X-28078344Y-118600758D01*
X-28078344Y-118600758D02*
X-27953620Y-118505244D01*
X-27953620Y-118505244D02*
X-27824636Y-118415285D01*
X-27824636Y-118415285D02*
X-27691577Y-118331148D01*
X-27691577Y-118331148D02*
X-27554602Y-118252567D01*
X-27554602Y-118252567D02*
X-27413897Y-118179807D01*
X-27413897Y-118179807D02*
X-27269620Y-118113396D01*
X-27269620Y-118113396D02*
X-27121930Y-118053336D01*
X-27121930Y-118053336D02*
X-26970985Y-117999361D01*
X-26970985Y-117999361D02*
X-26816971Y-117952265D01*
X-26816971Y-117952265D02*
X-26660021Y-117912049D01*
X-26660021Y-117912049D02*
X-26500371Y-117878711D01*
X-26500371Y-117878711D02*
X-26338103Y-117852253D01*
X-26338103Y-117852253D02*
X-26173453Y-117833467D01*
X-26173453Y-117833467D02*
X-26006554Y-117821826D01*
X-26006554Y-117821826D02*
X-25837565Y-117818122D01*
X-25837565Y-117818122D02*
X13998158Y-117818122D01*
X13998158Y-117818122D02*
X14167226Y-117821826D01*
X14167226Y-117821826D02*
X14334178Y-117833467D01*
X14334178Y-117833467D02*
X14498749Y-117852253D01*
X14498749Y-117852253D02*
X14660938Y-117878711D01*
X14660938Y-117878711D02*
X14820746Y-117912049D01*
X14820746Y-117912049D02*
X14977644Y-117952265D01*
X14977644Y-117952265D02*
X15131631Y-117999361D01*
X15131631Y-117999361D02*
X15282444Y-118053336D01*
X15282444Y-118053336D02*
X15430346Y-118113396D01*
X15430346Y-118113396D02*
X15574543Y-118179807D01*
X15574543Y-118179807D02*
X15715301Y-118252567D01*
X15715301Y-118252567D02*
X15852355Y-118331148D01*
X15852355Y-118331148D02*
X15985176Y-118415285D01*
X15985176Y-118415285D02*
X16114293Y-118505244D01*
X16114293Y-118505244D02*
X16238911Y-118600758D01*
X16238911Y-118600758D02*
X16359297Y-118701300D01*
X16359297Y-118701300D02*
X16475184Y-118807133D01*
X16475184Y-118807133D02*
X16586044Y-118917729D01*
X16586044Y-118917729D02*
X16692142Y-119033087D01*
X16692142Y-119033087D02*
X16793213Y-119153207D01*
X16793213Y-119153207D02*
X16888992Y-119277826D01*
X16888992Y-119277826D02*
X16979214Y-119406413D01*
X16979214Y-119406413D02*
X17064146Y-119539234D01*
X17064146Y-119539234D02*
X17143256Y-119676023D01*
X17143256Y-119676023D02*
X17216281Y-119816517D01*
X17216281Y-119816517D02*
X17283485Y-119960450D01*
X17283485Y-119960450D02*
X17344339Y-120108088D01*
X17344339Y-120108088D02*
X17398579Y-120258635D01*
X17398579Y-120258635D02*
X17446468Y-120412623D01*
X17446468Y-120412623D02*
X17487478Y-120569256D01*
X17487478Y-120569256D02*
X17521874Y-120728799D01*
X17521874Y-120728799D02*
X17548862Y-120890724D01*
X17548862Y-120890724D02*
X30242231Y-120890724D01*
X30242231Y-120890724D02*
X30427439Y-120885962D01*
X30427439Y-120885962D02*
X30610531Y-120872203D01*
X30610531Y-120872203D02*
X30790712Y-120849449D01*
X30790712Y-120849449D02*
X30967718Y-120817964D01*
X30967718Y-120817964D02*
X31141813Y-120778012D01*
X31141813Y-120778012D02*
X31312734Y-120729858D01*
X31312734Y-120729858D02*
X31479686Y-120673501D01*
X31479686Y-120673501D02*
X31642933Y-120609208D01*
X31642933Y-120609208D02*
X31802212Y-120537506D01*
X31802212Y-120537506D02*
X31956994Y-120458395D01*
X31956994Y-120458395D02*
X32107541Y-120372141D01*
X32107541Y-120372141D02*
X32253326Y-120278744D01*
X32253326Y-120278744D02*
X32394085Y-120178996D01*
X32394085Y-120178996D02*
X32529551Y-120072369D01*
X32529551Y-120072369D02*
X32659726Y-119959656D01*
X32659726Y-119959656D02*
X32784345Y-119840859D01*
X32784345Y-119840859D02*
X32903142Y-119716240D01*
X32903142Y-119716240D02*
X33015855Y-119586065D01*
X33015855Y-119586065D02*
X33122482Y-119450599D01*
X33122482Y-119450599D02*
X33222229Y-119309841D01*
X33222229Y-119309841D02*
X33315627Y-119164055D01*
X33315627Y-119164055D02*
X33401881Y-119013508D01*
X33401881Y-119013508D02*
X33480992Y-118858727D01*
X33480992Y-118858727D02*
X33552694Y-118699448D01*
X33552694Y-118699448D02*
X33616987Y-118536200D01*
X33616987Y-118536200D02*
X33673343Y-118369248D01*
X33673343Y-118369248D02*
X33721498Y-118198327D01*
X33721498Y-118198327D02*
X33761450Y-118024232D01*
X33761450Y-118024232D02*
X33792935Y-117847226D01*
X33792935Y-117847226D02*
X33815689Y-117667045D01*
X33815689Y-117667045D02*
X33829447Y-117483953D01*
X33829447Y-117483953D02*
X33834210Y-117298745D01*
X33834210Y-117298745D02*
X33834210Y-53078895D01*
X33834210Y-53078895D02*
X33829447Y-52893502D01*
X33829447Y-52893502D02*
X33815689Y-52710622D01*
X33815689Y-52710622D02*
X33792935Y-52530441D01*
X33792935Y-52530441D02*
X33761450Y-52353197D01*
X33761450Y-52353197D02*
X33721498Y-52179127D01*
X33721498Y-52179127D02*
X33673343Y-52008445D01*
X33673343Y-52008445D02*
X33616987Y-51841361D01*
X33616987Y-51841361D02*
X33552694Y-51678113D01*
X33552694Y-51678113D02*
X33480992Y-51518914D01*
X33480992Y-51518914D02*
X33401881Y-51363974D01*
X33401881Y-51363974D02*
X33315627Y-51213558D01*
X33315627Y-51213558D02*
X33222229Y-51067826D01*
X33222229Y-51067826D02*
X33122482Y-50927068D01*
X33122482Y-50927068D02*
X33015855Y-50791469D01*
X33015855Y-50791469D02*
X32903142Y-50661241D01*
X32903142Y-50661241D02*
X32784345Y-50536623D01*
X32784345Y-50536623D02*
X32659726Y-50417851D01*
X32659726Y-50417851D02*
X32529551Y-50305113D01*
X32529551Y-50305113D02*
X32394085Y-50198644D01*
X32394085Y-50198644D02*
X32253326Y-50098685D01*
X32253326Y-50098685D02*
X32107541Y-50005446D01*
X32107541Y-50005446D02*
X31956994Y-49919165D01*
X31956994Y-49919165D02*
X31802212Y-49840029D01*
X31802212Y-49840029D02*
X31642933Y-49768274D01*
X31642933Y-49768274D02*
X31479686Y-49704139D01*
X31479686Y-49704139D02*
X31312734Y-49647835D01*
X31312734Y-49647835D02*
X31141813Y-49599576D01*
X31141813Y-49599576D02*
X30967718Y-49559597D01*
X30967718Y-49559597D02*
X30790712Y-49528112D01*
X30790712Y-49528112D02*
X30610531Y-49505358D01*
X30610531Y-49505358D02*
X30427439Y-49491520D01*
X30427439Y-49491520D02*
X30242231Y-49486863D01*
X30242231Y-49486863D02*
X17580347Y-49486863D01*
X17580347Y-49486863D02*
X17566853Y-49663843D01*
X17566853Y-49663843D02*
X17545158Y-49838282D01*
X17545158Y-49838282D02*
X17514995Y-50009997D01*
X17514995Y-50009997D02*
X17477160Y-50178748D01*
X17477160Y-50178748D02*
X17431387Y-50344377D01*
X17431387Y-50344377D02*
X17378206Y-50506619D01*
X17378206Y-50506619D02*
X17317616Y-50665342D01*
X17317616Y-50665342D02*
X17249883Y-50820309D01*
X17249883Y-50820309D02*
X17175270Y-50971333D01*
X17175270Y-50971333D02*
X17093779Y-51118176D01*
X17093779Y-51118176D02*
X17005937Y-51260680D01*
X17005937Y-51260680D02*
X16911481Y-51398634D01*
X16911481Y-51398634D02*
X16810940Y-51531825D01*
X16810940Y-51531825D02*
X16704577Y-51660042D01*
X16704577Y-51660042D02*
X16592394Y-51783100D01*
X16592394Y-51783100D02*
X16474655Y-51900786D01*
X16474655Y-51900786D02*
X16351359Y-52012916D01*
X16351359Y-52012916D02*
X16223301Y-52119252D01*
X16223301Y-52119252D02*
X16089951Y-52219635D01*
X16089951Y-52219635D02*
X15952103Y-52313853D01*
X15952103Y-52313853D02*
X15809493Y-52401668D01*
X15809493Y-52401668D02*
X15662649Y-52482922D01*
X15662649Y-52482922D02*
X15511573Y-52557402D01*
X15511573Y-52557402D02*
X15356527Y-52624897D01*
X15356527Y-52624897D02*
X15197777Y-52685195D01*
X15197777Y-52685195D02*
X15035588Y-52738112D01*
X15035588Y-52738112D02*
X14869959Y-52783461D01*
X14869959Y-52783461D02*
X14701155Y-52821006D01*
X14701155Y-52821006D02*
X14529176Y-52850560D01*
X14529176Y-52850560D02*
X14354816Y-52871912D01*
X14354816Y-52871912D02*
X14177545Y-52884876D01*
X14177545Y-52884876D02*
X13998158Y-52889242D01*
X13998158Y-52889242D02*
X-25837565Y-52889242D01*
X-25837565Y-52889242D02*
X-26017005Y-52884876D01*
X-26017005Y-52884876D02*
X-26194090Y-52871912D01*
X-26194090Y-52871912D02*
X-26368636Y-52850560D01*
X-26368636Y-52850560D02*
X-26540403Y-52821006D01*
X-26540403Y-52821006D02*
X-26709233Y-52783461D01*
X-26709233Y-52783461D02*
X-26874889Y-52738112D01*
X-26874889Y-52738112D02*
X-27037184Y-52685195D01*
X-27037184Y-52685195D02*
X-27195934Y-52624897D01*
X-27195934Y-52624897D02*
X-27350953Y-52557402D01*
X-27350953Y-52557402D02*
X-27501977Y-52482922D01*
X-27501977Y-52482922D02*
X-27648873Y-52401668D01*
X-27648873Y-52401668D02*
X-27791378Y-52313853D01*
X-27791378Y-52313853D02*
X-27929358Y-52219635D01*
X-27929358Y-52219635D02*
X-28062575Y-52119252D01*
X-28062575Y-52119252D02*
X-28190845Y-52012916D01*
X-28190845Y-52012916D02*
X-28313956Y-51900786D01*
X-28313956Y-51900786D02*
X-28431695Y-51783100D01*
X-28431695Y-51783100D02*
X-28543905Y-51660042D01*
X-28543905Y-51660042D02*
X-28650346Y-51531825D01*
X-28650346Y-51531825D02*
X-28750861Y-51398634D01*
X-28750861Y-51398634D02*
X-28845185Y-51260680D01*
X-28845185Y-51260680D02*
X-28933186Y-51118176D01*
X-28933186Y-51118176D02*
X-29014624Y-50971333D01*
X-29014624Y-50971333D02*
X-29089316Y-50820309D01*
X-29089316Y-50820309D02*
X-29157049Y-50665342D01*
X-29157049Y-50665342D02*
X-29217639Y-50506619D01*
X-29217639Y-50506619D02*
X-29270873Y-50344377D01*
X-29270873Y-50344377D02*
X-29316540Y-50178748D01*
X-29316540Y-50178748D02*
X-29354481Y-50009997D01*
X-29354481Y-50009997D02*
X-29384458Y-49838282D01*
X-29384458Y-49838282D02*
X-29406286Y-49663843D01*
X-29406286Y-49663843D02*
X-29419754Y-49486863D01*
X-29419754Y-49486863D02*
X-42081505Y-49486863D01*
X-42081505Y-49486863D02*
X-42081505Y-49486863D01*
X-42081505Y-49486863D02*
X-42081505Y-49486863D01*
%TD*%
M02*
