M48
; DRILL file {KiCad 5.1.9+dfsg1-1} date Tue Sep  7 23:15:55 2021
; FORMAT={-:-/ absolute / inch / decimal}
; #@! TF.CreationDate,2021-09-07T23:15:55+02:00
; #@! TF.GenerationSoftware,Kicad,Pcbnew,5.1.9+dfsg1-1
; #@! TF.FileFunction,NonPlated,1,2,NPTH
FMAT,2
INCH
T1C0.0669
T2C0.1575
%
G90
G05
T1
X-1.5685Y-4.1157
X-1.1685Y-4.1157
X-0.8114Y-4.1161
X-0.4114Y-4.1161
X-0.0539Y-3.3594
X-0.0535Y-4.1161
X-0.0531Y-2.602
X0.3461Y-3.3594
X0.3465Y-4.1161
X0.3469Y-2.602
X0.7031Y-3.3594
X0.7035Y-2.6024
X0.7035Y-4.1161
X1.1031Y-3.3594
X1.1035Y-2.6024
X1.1035Y-4.1161
T2
X-1.3685Y-4.1157
X-0.6114Y-4.1161
X0.1461Y-3.3594
X0.1465Y-4.1161
X0.1469Y-2.602
X0.9031Y-3.3594
X0.9035Y-2.6024
X0.9035Y-4.1161
T0
M30
