%TF.GenerationSoftware,KiCad,Pcbnew,5.1.9+dfsg1-1*%
%TF.CreationDate,2021-09-07T23:13:06+02:00*%
%TF.ProjectId,streamdeck,73747265-616d-4646-9563-6b2e6b696361,rev?*%
%TF.SameCoordinates,Original*%
%TF.FileFunction,Soldermask,Bot*%
%TF.FilePolarity,Negative*%
%FSLAX46Y46*%
G04 Gerber Fmt 4.6, Leading zero omitted, Abs format (unit mm)*
G04 Created by KiCad (PCBNEW 5.1.9+dfsg1-1) date 2021-09-07 23:13:06*
%MOMM*%
%LPD*%
G01*
G04 APERTURE LIST*
%ADD10C,0.010000*%
%ADD11C,4.030105*%
%ADD12C,1.700000*%
%ADD13C,4.000000*%
%ADD14C,2.200000*%
%ADD15R,1.500000X1.000000*%
%ADD16O,1.700000X1.700000*%
%ADD17R,1.700000X1.700000*%
G04 APERTURE END LIST*
D10*
%TO.C,Ref\u002A\u002A*%
G36*
X-22686432Y-74916585D02*
G01*
X-21758365Y-74916593D01*
X-20870802Y-74916608D01*
X-20022827Y-74916635D01*
X-19213525Y-74916673D01*
X-18441982Y-74916727D01*
X-17707282Y-74916798D01*
X-17008511Y-74916888D01*
X-16344754Y-74917001D01*
X-15715095Y-74917137D01*
X-15118619Y-74917300D01*
X-14554412Y-74917492D01*
X-14021559Y-74917715D01*
X-13519145Y-74917971D01*
X-13046254Y-74918264D01*
X-12601972Y-74918594D01*
X-12185383Y-74918965D01*
X-11795574Y-74919378D01*
X-11431628Y-74919836D01*
X-11092631Y-74920342D01*
X-10777668Y-74920897D01*
X-10485824Y-74921504D01*
X-10216183Y-74922166D01*
X-9967832Y-74922884D01*
X-9739854Y-74923661D01*
X-9531336Y-74924499D01*
X-9341361Y-74925401D01*
X-9169016Y-74926368D01*
X-9013384Y-74927404D01*
X-8873552Y-74928510D01*
X-8748604Y-74929689D01*
X-8637624Y-74930943D01*
X-8539699Y-74932274D01*
X-8453914Y-74933685D01*
X-8379352Y-74935178D01*
X-8315100Y-74936756D01*
X-8260242Y-74938420D01*
X-8213863Y-74940173D01*
X-8175048Y-74942017D01*
X-8142883Y-74943955D01*
X-8116452Y-74945989D01*
X-8094841Y-74948121D01*
X-8077134Y-74950353D01*
X-8062416Y-74952688D01*
X-8049773Y-74955129D01*
X-8045500Y-74956045D01*
X-7737137Y-75042933D01*
X-7453374Y-75162165D01*
X-7195879Y-75312229D01*
X-6966320Y-75491611D01*
X-6766365Y-75698799D01*
X-6597679Y-75932279D01*
X-6461930Y-76190540D01*
X-6360787Y-76472068D01*
X-6356036Y-76489010D01*
X-6299250Y-76694583D01*
X-6299250Y-92230916D01*
X-6348437Y-92421416D01*
X-6437194Y-92685567D01*
X-6562474Y-92939207D01*
X-6719579Y-93175014D01*
X-6903810Y-93385664D01*
X-7052894Y-93519479D01*
X-7217551Y-93636609D01*
X-7410117Y-93748479D01*
X-7616221Y-93847748D01*
X-7821490Y-93927075D01*
X-7897334Y-93950768D01*
X-8098417Y-94008916D01*
X-23592417Y-94012348D01*
X-24590142Y-94012558D01*
X-25546353Y-94012736D01*
X-26461872Y-94012880D01*
X-27337519Y-94012989D01*
X-28174114Y-94013062D01*
X-28972477Y-94013097D01*
X-29733429Y-94013094D01*
X-30457791Y-94013051D01*
X-31146381Y-94012967D01*
X-31800022Y-94012840D01*
X-32419532Y-94012669D01*
X-33005734Y-94012454D01*
X-33559446Y-94012192D01*
X-34081489Y-94011882D01*
X-34572684Y-94011524D01*
X-35033851Y-94011116D01*
X-35465810Y-94010656D01*
X-35869382Y-94010143D01*
X-36245386Y-94009577D01*
X-36594644Y-94008955D01*
X-36917976Y-94008277D01*
X-37216202Y-94007541D01*
X-37490142Y-94006746D01*
X-37740617Y-94005891D01*
X-37968447Y-94004974D01*
X-38174452Y-94003994D01*
X-38359454Y-94002951D01*
X-38524271Y-94001842D01*
X-38669725Y-94000666D01*
X-38796635Y-93999422D01*
X-38905823Y-93998109D01*
X-38998109Y-93996726D01*
X-39074312Y-93995271D01*
X-39135253Y-93993743D01*
X-39181753Y-93992141D01*
X-39214632Y-93990463D01*
X-39234711Y-93988708D01*
X-39238693Y-93988107D01*
X-39530748Y-93915392D01*
X-39805160Y-93808039D01*
X-40059072Y-93668725D01*
X-40289624Y-93500128D01*
X-40493958Y-93304924D01*
X-40669214Y-93085790D01*
X-40812535Y-92845404D01*
X-40921061Y-92586442D01*
X-40983758Y-92353999D01*
X-40987253Y-92335991D01*
X-40990535Y-92316367D01*
X-40993611Y-92293820D01*
X-40996485Y-92267042D01*
X-40999163Y-92234725D01*
X-41001652Y-92195562D01*
X-41003956Y-92148245D01*
X-41006081Y-92091466D01*
X-41008034Y-92023916D01*
X-41009819Y-91944290D01*
X-41011442Y-91851278D01*
X-41012909Y-91743573D01*
X-41014225Y-91619867D01*
X-41015397Y-91478853D01*
X-41016429Y-91319222D01*
X-41017328Y-91139668D01*
X-41018099Y-90938881D01*
X-41018747Y-90715555D01*
X-41019279Y-90468381D01*
X-41019700Y-90196052D01*
X-41020015Y-89897261D01*
X-41020231Y-89570698D01*
X-41020352Y-89215057D01*
X-41020385Y-88829030D01*
X-41020335Y-88411309D01*
X-41020208Y-87960587D01*
X-41020010Y-87475554D01*
X-41019745Y-86954905D01*
X-41019420Y-86397330D01*
X-41019040Y-85801523D01*
X-41018612Y-85166175D01*
X-41018140Y-84489979D01*
X-41018073Y-84395120D01*
X-41015031Y-80092150D01*
X-40322522Y-80092150D01*
X-40322457Y-80515022D01*
X-40322262Y-80970999D01*
X-40321959Y-81461383D01*
X-40321571Y-81987473D01*
X-40321119Y-82550570D01*
X-40320624Y-83151976D01*
X-40320109Y-83792991D01*
X-40319595Y-84474915D01*
X-40319547Y-84541593D01*
X-40314084Y-92209750D01*
X-40267415Y-92331993D01*
X-40184502Y-92521161D01*
X-40089670Y-92680333D01*
X-39975316Y-92821627D01*
X-39932483Y-92865916D01*
X-39736005Y-93032592D01*
X-39519485Y-93162160D01*
X-39284234Y-93253918D01*
X-39142375Y-93289011D01*
X-39127368Y-93290822D01*
X-39100355Y-93292558D01*
X-39060504Y-93294222D01*
X-39006983Y-93295814D01*
X-38938960Y-93297336D01*
X-38855601Y-93298789D01*
X-38756075Y-93300177D01*
X-38639550Y-93301499D01*
X-38505192Y-93302758D01*
X-38352170Y-93303955D01*
X-38179651Y-93305092D01*
X-37986802Y-93306170D01*
X-37772792Y-93307192D01*
X-37536789Y-93308158D01*
X-37277958Y-93309070D01*
X-36995470Y-93309930D01*
X-36688490Y-93310740D01*
X-36356186Y-93311501D01*
X-35997727Y-93312214D01*
X-35612280Y-93312882D01*
X-35199012Y-93313505D01*
X-34757092Y-93314086D01*
X-34285686Y-93314627D01*
X-33783962Y-93315128D01*
X-33251088Y-93315591D01*
X-32686232Y-93316018D01*
X-32088562Y-93316411D01*
X-31457244Y-93316771D01*
X-30791447Y-93317099D01*
X-30090338Y-93317398D01*
X-29353084Y-93317669D01*
X-28578854Y-93317914D01*
X-27766815Y-93318134D01*
X-26916135Y-93318330D01*
X-26025981Y-93318505D01*
X-25095522Y-93318660D01*
X-24123923Y-93318797D01*
X-23687667Y-93318851D01*
X-22603938Y-93318955D01*
X-21562244Y-93319005D01*
X-20562286Y-93318999D01*
X-19603766Y-93318937D01*
X-18686384Y-93318820D01*
X-17809843Y-93318645D01*
X-16973844Y-93318414D01*
X-16178089Y-93318125D01*
X-15422278Y-93317779D01*
X-14706113Y-93317374D01*
X-14029295Y-93316911D01*
X-13391527Y-93316389D01*
X-12792509Y-93315807D01*
X-12231943Y-93315166D01*
X-11709530Y-93314465D01*
X-11224973Y-93313703D01*
X-10777971Y-93312880D01*
X-10368227Y-93311996D01*
X-9995441Y-93311051D01*
X-9659317Y-93310043D01*
X-9359554Y-93308973D01*
X-9095854Y-93307839D01*
X-8867919Y-93306643D01*
X-8675451Y-93305383D01*
X-8518150Y-93304058D01*
X-8395718Y-93302670D01*
X-8307856Y-93301216D01*
X-8254266Y-93299697D01*
X-8236000Y-93298457D01*
X-8055287Y-93257267D01*
X-7872942Y-93194404D01*
X-7709297Y-93117042D01*
X-7689168Y-93105539D01*
X-7573644Y-93025536D01*
X-7452811Y-92920917D01*
X-7336824Y-92802245D01*
X-7235840Y-92680084D01*
X-7160015Y-92564998D01*
X-7148437Y-92543113D01*
X-7136145Y-92520071D01*
X-7124588Y-92500476D01*
X-7113745Y-92483029D01*
X-7103592Y-92466427D01*
X-7094108Y-92449370D01*
X-7085268Y-92430556D01*
X-7077052Y-92408685D01*
X-7069437Y-92382457D01*
X-7062399Y-92350569D01*
X-7055917Y-92311720D01*
X-7049968Y-92264611D01*
X-7044529Y-92207940D01*
X-7039578Y-92140405D01*
X-7035093Y-92060707D01*
X-7031050Y-91967544D01*
X-7027428Y-91859614D01*
X-7024204Y-91735618D01*
X-7021355Y-91594254D01*
X-7018858Y-91434220D01*
X-7016692Y-91254217D01*
X-7014834Y-91052943D01*
X-7013261Y-90829098D01*
X-7011951Y-90581379D01*
X-7010881Y-90308487D01*
X-7010029Y-90009120D01*
X-7009371Y-89681977D01*
X-7008887Y-89325758D01*
X-7008552Y-88939161D01*
X-7008346Y-88520885D01*
X-7008244Y-88069630D01*
X-7008225Y-87584094D01*
X-7008266Y-87062977D01*
X-7008344Y-86504977D01*
X-7008438Y-85908793D01*
X-7008524Y-85273126D01*
X-7008580Y-84596672D01*
X-7008585Y-84463594D01*
X-7008592Y-83781010D01*
X-7008580Y-83139456D01*
X-7008567Y-82537629D01*
X-7008570Y-81974225D01*
X-7008609Y-81447942D01*
X-7008699Y-80957477D01*
X-7008861Y-80501525D01*
X-7009111Y-80078784D01*
X-7009468Y-79687950D01*
X-7009950Y-79327721D01*
X-7010575Y-78996793D01*
X-7011360Y-78693863D01*
X-7012324Y-78417628D01*
X-7013485Y-78166784D01*
X-7014861Y-77940028D01*
X-7016469Y-77736057D01*
X-7018329Y-77553568D01*
X-7020457Y-77391258D01*
X-7022872Y-77247823D01*
X-7025592Y-77121960D01*
X-7028635Y-77012366D01*
X-7032019Y-76917738D01*
X-7035762Y-76836772D01*
X-7039881Y-76768166D01*
X-7044396Y-76710616D01*
X-7049323Y-76662818D01*
X-7054682Y-76623470D01*
X-7060489Y-76591268D01*
X-7066763Y-76564910D01*
X-7073523Y-76543091D01*
X-7080785Y-76524510D01*
X-7088568Y-76507861D01*
X-7096891Y-76491843D01*
X-7105770Y-76475152D01*
X-7115224Y-76456485D01*
X-7119367Y-76447752D01*
X-7201894Y-76300867D01*
X-7309517Y-76154807D01*
X-7429422Y-76025992D01*
X-7489232Y-75973778D01*
X-7606223Y-75891867D01*
X-7746513Y-75811886D01*
X-7895716Y-75740816D01*
X-8039450Y-75685635D01*
X-8140750Y-75657638D01*
X-8153804Y-75655652D01*
X-8174306Y-75653750D01*
X-8203139Y-75651930D01*
X-8241187Y-75650190D01*
X-8289335Y-75648530D01*
X-8348465Y-75646946D01*
X-8419463Y-75645438D01*
X-8503212Y-75644002D01*
X-8600595Y-75642639D01*
X-8712497Y-75641345D01*
X-8839802Y-75640119D01*
X-8983393Y-75638959D01*
X-9144155Y-75637864D01*
X-9322970Y-75636831D01*
X-9520724Y-75635859D01*
X-9738300Y-75634946D01*
X-9976582Y-75634091D01*
X-10236453Y-75633290D01*
X-10518798Y-75632543D01*
X-10824501Y-75631848D01*
X-11154445Y-75631203D01*
X-11509514Y-75630606D01*
X-11890592Y-75630055D01*
X-12298564Y-75629549D01*
X-12734312Y-75629086D01*
X-13198721Y-75628664D01*
X-13692675Y-75628280D01*
X-14217058Y-75627935D01*
X-14772753Y-75627624D01*
X-15360644Y-75627348D01*
X-15981615Y-75627104D01*
X-16636551Y-75626889D01*
X-17326335Y-75626704D01*
X-18051850Y-75626544D01*
X-18813981Y-75626410D01*
X-19613612Y-75626298D01*
X-20451627Y-75626208D01*
X-21328909Y-75626137D01*
X-22246342Y-75626084D01*
X-23204810Y-75626046D01*
X-23668406Y-75626034D01*
X-24635683Y-75626011D01*
X-25561542Y-75625993D01*
X-26446902Y-75625982D01*
X-27292678Y-75625980D01*
X-28099788Y-75625989D01*
X-28869147Y-75626013D01*
X-29601673Y-75626053D01*
X-30298281Y-75626112D01*
X-30959890Y-75626193D01*
X-31587415Y-75626298D01*
X-32181773Y-75626429D01*
X-32743881Y-75626589D01*
X-33274655Y-75626780D01*
X-33775012Y-75627005D01*
X-34245869Y-75627266D01*
X-34688141Y-75627565D01*
X-35102747Y-75627906D01*
X-35490602Y-75628291D01*
X-35852624Y-75628721D01*
X-36189728Y-75629200D01*
X-36502831Y-75629730D01*
X-36792851Y-75630314D01*
X-37060703Y-75630953D01*
X-37307305Y-75631651D01*
X-37533572Y-75632409D01*
X-37740422Y-75633231D01*
X-37928772Y-75634118D01*
X-38099537Y-75635073D01*
X-38253635Y-75636099D01*
X-38391981Y-75637199D01*
X-38515494Y-75638373D01*
X-38625089Y-75639626D01*
X-38721683Y-75640959D01*
X-38806193Y-75642375D01*
X-38879535Y-75643876D01*
X-38942626Y-75645466D01*
X-38996383Y-75647145D01*
X-39041722Y-75648917D01*
X-39079560Y-75650785D01*
X-39110813Y-75652750D01*
X-39136399Y-75654815D01*
X-39157233Y-75656982D01*
X-39174233Y-75659255D01*
X-39188315Y-75661635D01*
X-39200395Y-75664125D01*
X-39211391Y-75666728D01*
X-39215323Y-75667708D01*
X-39445163Y-75742981D01*
X-39650143Y-75848857D01*
X-39838453Y-75989985D01*
X-39923254Y-76069539D01*
X-40020554Y-76171618D01*
X-40092986Y-76260471D01*
X-40149674Y-76348107D01*
X-40183177Y-76411688D01*
X-40195596Y-76435693D01*
X-40207276Y-76456384D01*
X-40218237Y-76475061D01*
X-40228501Y-76493025D01*
X-40238090Y-76511577D01*
X-40247025Y-76532018D01*
X-40255330Y-76555648D01*
X-40263025Y-76583768D01*
X-40270132Y-76617679D01*
X-40276673Y-76658681D01*
X-40282671Y-76708076D01*
X-40288146Y-76767163D01*
X-40293120Y-76837244D01*
X-40297616Y-76919619D01*
X-40301655Y-77015588D01*
X-40305259Y-77126454D01*
X-40308450Y-77253516D01*
X-40311250Y-77398074D01*
X-40313680Y-77561431D01*
X-40315762Y-77744886D01*
X-40317519Y-77949740D01*
X-40318971Y-78177293D01*
X-40320141Y-78428847D01*
X-40321051Y-78705703D01*
X-40321722Y-79009160D01*
X-40322177Y-79340520D01*
X-40322436Y-79701083D01*
X-40322522Y-80092150D01*
X-41015031Y-80092150D01*
X-41012584Y-76631083D01*
X-40954273Y-76445201D01*
X-40843565Y-76158786D01*
X-40699910Y-75898434D01*
X-40524544Y-75665237D01*
X-40318705Y-75460285D01*
X-40083630Y-75284671D01*
X-39820555Y-75139488D01*
X-39530718Y-75025827D01*
X-39266334Y-74955264D01*
X-39254038Y-74952833D01*
X-39239648Y-74950506D01*
X-39222249Y-74948280D01*
X-39200926Y-74946154D01*
X-39174765Y-74944125D01*
X-39142852Y-74942191D01*
X-39104272Y-74940349D01*
X-39058111Y-74938598D01*
X-39003456Y-74936935D01*
X-38939391Y-74935357D01*
X-38865002Y-74933863D01*
X-38779375Y-74932451D01*
X-38681595Y-74931117D01*
X-38570749Y-74929860D01*
X-38445921Y-74928677D01*
X-38306198Y-74927567D01*
X-38150666Y-74926526D01*
X-37978409Y-74925554D01*
X-37788514Y-74924646D01*
X-37580066Y-74923802D01*
X-37352152Y-74923018D01*
X-37103856Y-74922294D01*
X-36834264Y-74921625D01*
X-36542462Y-74921011D01*
X-36227536Y-74920448D01*
X-35888571Y-74919935D01*
X-35524653Y-74919469D01*
X-35134868Y-74919048D01*
X-34718302Y-74918670D01*
X-34274039Y-74918332D01*
X-33801166Y-74918033D01*
X-33298769Y-74917769D01*
X-32765932Y-74917539D01*
X-32201743Y-74917341D01*
X-31605286Y-74917172D01*
X-30975647Y-74917029D01*
X-30311912Y-74916911D01*
X-29613166Y-74916816D01*
X-28878496Y-74916741D01*
X-28106986Y-74916683D01*
X-27297723Y-74916641D01*
X-26449792Y-74916612D01*
X-25562279Y-74916594D01*
X-24634270Y-74916585D01*
X-23664849Y-74916583D01*
X-23655917Y-74916583D01*
X-22686432Y-74916585D01*
G37*
X-22686432Y-74916585D02*
X-21758365Y-74916593D01*
X-20870802Y-74916608D01*
X-20022827Y-74916635D01*
X-19213525Y-74916673D01*
X-18441982Y-74916727D01*
X-17707282Y-74916798D01*
X-17008511Y-74916888D01*
X-16344754Y-74917001D01*
X-15715095Y-74917137D01*
X-15118619Y-74917300D01*
X-14554412Y-74917492D01*
X-14021559Y-74917715D01*
X-13519145Y-74917971D01*
X-13046254Y-74918264D01*
X-12601972Y-74918594D01*
X-12185383Y-74918965D01*
X-11795574Y-74919378D01*
X-11431628Y-74919836D01*
X-11092631Y-74920342D01*
X-10777668Y-74920897D01*
X-10485824Y-74921504D01*
X-10216183Y-74922166D01*
X-9967832Y-74922884D01*
X-9739854Y-74923661D01*
X-9531336Y-74924499D01*
X-9341361Y-74925401D01*
X-9169016Y-74926368D01*
X-9013384Y-74927404D01*
X-8873552Y-74928510D01*
X-8748604Y-74929689D01*
X-8637624Y-74930943D01*
X-8539699Y-74932274D01*
X-8453914Y-74933685D01*
X-8379352Y-74935178D01*
X-8315100Y-74936756D01*
X-8260242Y-74938420D01*
X-8213863Y-74940173D01*
X-8175048Y-74942017D01*
X-8142883Y-74943955D01*
X-8116452Y-74945989D01*
X-8094841Y-74948121D01*
X-8077134Y-74950353D01*
X-8062416Y-74952688D01*
X-8049773Y-74955129D01*
X-8045500Y-74956045D01*
X-7737137Y-75042933D01*
X-7453374Y-75162165D01*
X-7195879Y-75312229D01*
X-6966320Y-75491611D01*
X-6766365Y-75698799D01*
X-6597679Y-75932279D01*
X-6461930Y-76190540D01*
X-6360787Y-76472068D01*
X-6356036Y-76489010D01*
X-6299250Y-76694583D01*
X-6299250Y-92230916D01*
X-6348437Y-92421416D01*
X-6437194Y-92685567D01*
X-6562474Y-92939207D01*
X-6719579Y-93175014D01*
X-6903810Y-93385664D01*
X-7052894Y-93519479D01*
X-7217551Y-93636609D01*
X-7410117Y-93748479D01*
X-7616221Y-93847748D01*
X-7821490Y-93927075D01*
X-7897334Y-93950768D01*
X-8098417Y-94008916D01*
X-23592417Y-94012348D01*
X-24590142Y-94012558D01*
X-25546353Y-94012736D01*
X-26461872Y-94012880D01*
X-27337519Y-94012989D01*
X-28174114Y-94013062D01*
X-28972477Y-94013097D01*
X-29733429Y-94013094D01*
X-30457791Y-94013051D01*
X-31146381Y-94012967D01*
X-31800022Y-94012840D01*
X-32419532Y-94012669D01*
X-33005734Y-94012454D01*
X-33559446Y-94012192D01*
X-34081489Y-94011882D01*
X-34572684Y-94011524D01*
X-35033851Y-94011116D01*
X-35465810Y-94010656D01*
X-35869382Y-94010143D01*
X-36245386Y-94009577D01*
X-36594644Y-94008955D01*
X-36917976Y-94008277D01*
X-37216202Y-94007541D01*
X-37490142Y-94006746D01*
X-37740617Y-94005891D01*
X-37968447Y-94004974D01*
X-38174452Y-94003994D01*
X-38359454Y-94002951D01*
X-38524271Y-94001842D01*
X-38669725Y-94000666D01*
X-38796635Y-93999422D01*
X-38905823Y-93998109D01*
X-38998109Y-93996726D01*
X-39074312Y-93995271D01*
X-39135253Y-93993743D01*
X-39181753Y-93992141D01*
X-39214632Y-93990463D01*
X-39234711Y-93988708D01*
X-39238693Y-93988107D01*
X-39530748Y-93915392D01*
X-39805160Y-93808039D01*
X-40059072Y-93668725D01*
X-40289624Y-93500128D01*
X-40493958Y-93304924D01*
X-40669214Y-93085790D01*
X-40812535Y-92845404D01*
X-40921061Y-92586442D01*
X-40983758Y-92353999D01*
X-40987253Y-92335991D01*
X-40990535Y-92316367D01*
X-40993611Y-92293820D01*
X-40996485Y-92267042D01*
X-40999163Y-92234725D01*
X-41001652Y-92195562D01*
X-41003956Y-92148245D01*
X-41006081Y-92091466D01*
X-41008034Y-92023916D01*
X-41009819Y-91944290D01*
X-41011442Y-91851278D01*
X-41012909Y-91743573D01*
X-41014225Y-91619867D01*
X-41015397Y-91478853D01*
X-41016429Y-91319222D01*
X-41017328Y-91139668D01*
X-41018099Y-90938881D01*
X-41018747Y-90715555D01*
X-41019279Y-90468381D01*
X-41019700Y-90196052D01*
X-41020015Y-89897261D01*
X-41020231Y-89570698D01*
X-41020352Y-89215057D01*
X-41020385Y-88829030D01*
X-41020335Y-88411309D01*
X-41020208Y-87960587D01*
X-41020010Y-87475554D01*
X-41019745Y-86954905D01*
X-41019420Y-86397330D01*
X-41019040Y-85801523D01*
X-41018612Y-85166175D01*
X-41018140Y-84489979D01*
X-41018073Y-84395120D01*
X-41015031Y-80092150D01*
X-40322522Y-80092150D01*
X-40322457Y-80515022D01*
X-40322262Y-80970999D01*
X-40321959Y-81461383D01*
X-40321571Y-81987473D01*
X-40321119Y-82550570D01*
X-40320624Y-83151976D01*
X-40320109Y-83792991D01*
X-40319595Y-84474915D01*
X-40319547Y-84541593D01*
X-40314084Y-92209750D01*
X-40267415Y-92331993D01*
X-40184502Y-92521161D01*
X-40089670Y-92680333D01*
X-39975316Y-92821627D01*
X-39932483Y-92865916D01*
X-39736005Y-93032592D01*
X-39519485Y-93162160D01*
X-39284234Y-93253918D01*
X-39142375Y-93289011D01*
X-39127368Y-93290822D01*
X-39100355Y-93292558D01*
X-39060504Y-93294222D01*
X-39006983Y-93295814D01*
X-38938960Y-93297336D01*
X-38855601Y-93298789D01*
X-38756075Y-93300177D01*
X-38639550Y-93301499D01*
X-38505192Y-93302758D01*
X-38352170Y-93303955D01*
X-38179651Y-93305092D01*
X-37986802Y-93306170D01*
X-37772792Y-93307192D01*
X-37536789Y-93308158D01*
X-37277958Y-93309070D01*
X-36995470Y-93309930D01*
X-36688490Y-93310740D01*
X-36356186Y-93311501D01*
X-35997727Y-93312214D01*
X-35612280Y-93312882D01*
X-35199012Y-93313505D01*
X-34757092Y-93314086D01*
X-34285686Y-93314627D01*
X-33783962Y-93315128D01*
X-33251088Y-93315591D01*
X-32686232Y-93316018D01*
X-32088562Y-93316411D01*
X-31457244Y-93316771D01*
X-30791447Y-93317099D01*
X-30090338Y-93317398D01*
X-29353084Y-93317669D01*
X-28578854Y-93317914D01*
X-27766815Y-93318134D01*
X-26916135Y-93318330D01*
X-26025981Y-93318505D01*
X-25095522Y-93318660D01*
X-24123923Y-93318797D01*
X-23687667Y-93318851D01*
X-22603938Y-93318955D01*
X-21562244Y-93319005D01*
X-20562286Y-93318999D01*
X-19603766Y-93318937D01*
X-18686384Y-93318820D01*
X-17809843Y-93318645D01*
X-16973844Y-93318414D01*
X-16178089Y-93318125D01*
X-15422278Y-93317779D01*
X-14706113Y-93317374D01*
X-14029295Y-93316911D01*
X-13391527Y-93316389D01*
X-12792509Y-93315807D01*
X-12231943Y-93315166D01*
X-11709530Y-93314465D01*
X-11224973Y-93313703D01*
X-10777971Y-93312880D01*
X-10368227Y-93311996D01*
X-9995441Y-93311051D01*
X-9659317Y-93310043D01*
X-9359554Y-93308973D01*
X-9095854Y-93307839D01*
X-8867919Y-93306643D01*
X-8675451Y-93305383D01*
X-8518150Y-93304058D01*
X-8395718Y-93302670D01*
X-8307856Y-93301216D01*
X-8254266Y-93299697D01*
X-8236000Y-93298457D01*
X-8055287Y-93257267D01*
X-7872942Y-93194404D01*
X-7709297Y-93117042D01*
X-7689168Y-93105539D01*
X-7573644Y-93025536D01*
X-7452811Y-92920917D01*
X-7336824Y-92802245D01*
X-7235840Y-92680084D01*
X-7160015Y-92564998D01*
X-7148437Y-92543113D01*
X-7136145Y-92520071D01*
X-7124588Y-92500476D01*
X-7113745Y-92483029D01*
X-7103592Y-92466427D01*
X-7094108Y-92449370D01*
X-7085268Y-92430556D01*
X-7077052Y-92408685D01*
X-7069437Y-92382457D01*
X-7062399Y-92350569D01*
X-7055917Y-92311720D01*
X-7049968Y-92264611D01*
X-7044529Y-92207940D01*
X-7039578Y-92140405D01*
X-7035093Y-92060707D01*
X-7031050Y-91967544D01*
X-7027428Y-91859614D01*
X-7024204Y-91735618D01*
X-7021355Y-91594254D01*
X-7018858Y-91434220D01*
X-7016692Y-91254217D01*
X-7014834Y-91052943D01*
X-7013261Y-90829098D01*
X-7011951Y-90581379D01*
X-7010881Y-90308487D01*
X-7010029Y-90009120D01*
X-7009371Y-89681977D01*
X-7008887Y-89325758D01*
X-7008552Y-88939161D01*
X-7008346Y-88520885D01*
X-7008244Y-88069630D01*
X-7008225Y-87584094D01*
X-7008266Y-87062977D01*
X-7008344Y-86504977D01*
X-7008438Y-85908793D01*
X-7008524Y-85273126D01*
X-7008580Y-84596672D01*
X-7008585Y-84463594D01*
X-7008592Y-83781010D01*
X-7008580Y-83139456D01*
X-7008567Y-82537629D01*
X-7008570Y-81974225D01*
X-7008609Y-81447942D01*
X-7008699Y-80957477D01*
X-7008861Y-80501525D01*
X-7009111Y-80078784D01*
X-7009468Y-79687950D01*
X-7009950Y-79327721D01*
X-7010575Y-78996793D01*
X-7011360Y-78693863D01*
X-7012324Y-78417628D01*
X-7013485Y-78166784D01*
X-7014861Y-77940028D01*
X-7016469Y-77736057D01*
X-7018329Y-77553568D01*
X-7020457Y-77391258D01*
X-7022872Y-77247823D01*
X-7025592Y-77121960D01*
X-7028635Y-77012366D01*
X-7032019Y-76917738D01*
X-7035762Y-76836772D01*
X-7039881Y-76768166D01*
X-7044396Y-76710616D01*
X-7049323Y-76662818D01*
X-7054682Y-76623470D01*
X-7060489Y-76591268D01*
X-7066763Y-76564910D01*
X-7073523Y-76543091D01*
X-7080785Y-76524510D01*
X-7088568Y-76507861D01*
X-7096891Y-76491843D01*
X-7105770Y-76475152D01*
X-7115224Y-76456485D01*
X-7119367Y-76447752D01*
X-7201894Y-76300867D01*
X-7309517Y-76154807D01*
X-7429422Y-76025992D01*
X-7489232Y-75973778D01*
X-7606223Y-75891867D01*
X-7746513Y-75811886D01*
X-7895716Y-75740816D01*
X-8039450Y-75685635D01*
X-8140750Y-75657638D01*
X-8153804Y-75655652D01*
X-8174306Y-75653750D01*
X-8203139Y-75651930D01*
X-8241187Y-75650190D01*
X-8289335Y-75648530D01*
X-8348465Y-75646946D01*
X-8419463Y-75645438D01*
X-8503212Y-75644002D01*
X-8600595Y-75642639D01*
X-8712497Y-75641345D01*
X-8839802Y-75640119D01*
X-8983393Y-75638959D01*
X-9144155Y-75637864D01*
X-9322970Y-75636831D01*
X-9520724Y-75635859D01*
X-9738300Y-75634946D01*
X-9976582Y-75634091D01*
X-10236453Y-75633290D01*
X-10518798Y-75632543D01*
X-10824501Y-75631848D01*
X-11154445Y-75631203D01*
X-11509514Y-75630606D01*
X-11890592Y-75630055D01*
X-12298564Y-75629549D01*
X-12734312Y-75629086D01*
X-13198721Y-75628664D01*
X-13692675Y-75628280D01*
X-14217058Y-75627935D01*
X-14772753Y-75627624D01*
X-15360644Y-75627348D01*
X-15981615Y-75627104D01*
X-16636551Y-75626889D01*
X-17326335Y-75626704D01*
X-18051850Y-75626544D01*
X-18813981Y-75626410D01*
X-19613612Y-75626298D01*
X-20451627Y-75626208D01*
X-21328909Y-75626137D01*
X-22246342Y-75626084D01*
X-23204810Y-75626046D01*
X-23668406Y-75626034D01*
X-24635683Y-75626011D01*
X-25561542Y-75625993D01*
X-26446902Y-75625982D01*
X-27292678Y-75625980D01*
X-28099788Y-75625989D01*
X-28869147Y-75626013D01*
X-29601673Y-75626053D01*
X-30298281Y-75626112D01*
X-30959890Y-75626193D01*
X-31587415Y-75626298D01*
X-32181773Y-75626429D01*
X-32743881Y-75626589D01*
X-33274655Y-75626780D01*
X-33775012Y-75627005D01*
X-34245869Y-75627266D01*
X-34688141Y-75627565D01*
X-35102747Y-75627906D01*
X-35490602Y-75628291D01*
X-35852624Y-75628721D01*
X-36189728Y-75629200D01*
X-36502831Y-75629730D01*
X-36792851Y-75630314D01*
X-37060703Y-75630953D01*
X-37307305Y-75631651D01*
X-37533572Y-75632409D01*
X-37740422Y-75633231D01*
X-37928772Y-75634118D01*
X-38099537Y-75635073D01*
X-38253635Y-75636099D01*
X-38391981Y-75637199D01*
X-38515494Y-75638373D01*
X-38625089Y-75639626D01*
X-38721683Y-75640959D01*
X-38806193Y-75642375D01*
X-38879535Y-75643876D01*
X-38942626Y-75645466D01*
X-38996383Y-75647145D01*
X-39041722Y-75648917D01*
X-39079560Y-75650785D01*
X-39110813Y-75652750D01*
X-39136399Y-75654815D01*
X-39157233Y-75656982D01*
X-39174233Y-75659255D01*
X-39188315Y-75661635D01*
X-39200395Y-75664125D01*
X-39211391Y-75666728D01*
X-39215323Y-75667708D01*
X-39445163Y-75742981D01*
X-39650143Y-75848857D01*
X-39838453Y-75989985D01*
X-39923254Y-76069539D01*
X-40020554Y-76171618D01*
X-40092986Y-76260471D01*
X-40149674Y-76348107D01*
X-40183177Y-76411688D01*
X-40195596Y-76435693D01*
X-40207276Y-76456384D01*
X-40218237Y-76475061D01*
X-40228501Y-76493025D01*
X-40238090Y-76511577D01*
X-40247025Y-76532018D01*
X-40255330Y-76555648D01*
X-40263025Y-76583768D01*
X-40270132Y-76617679D01*
X-40276673Y-76658681D01*
X-40282671Y-76708076D01*
X-40288146Y-76767163D01*
X-40293120Y-76837244D01*
X-40297616Y-76919619D01*
X-40301655Y-77015588D01*
X-40305259Y-77126454D01*
X-40308450Y-77253516D01*
X-40311250Y-77398074D01*
X-40313680Y-77561431D01*
X-40315762Y-77744886D01*
X-40317519Y-77949740D01*
X-40318971Y-78177293D01*
X-40320141Y-78428847D01*
X-40321051Y-78705703D01*
X-40321722Y-79009160D01*
X-40322177Y-79340520D01*
X-40322436Y-79701083D01*
X-40322522Y-80092150D01*
X-41015031Y-80092150D01*
X-41012584Y-76631083D01*
X-40954273Y-76445201D01*
X-40843565Y-76158786D01*
X-40699910Y-75898434D01*
X-40524544Y-75665237D01*
X-40318705Y-75460285D01*
X-40083630Y-75284671D01*
X-39820555Y-75139488D01*
X-39530718Y-75025827D01*
X-39266334Y-74955264D01*
X-39254038Y-74952833D01*
X-39239648Y-74950506D01*
X-39222249Y-74948280D01*
X-39200926Y-74946154D01*
X-39174765Y-74944125D01*
X-39142852Y-74942191D01*
X-39104272Y-74940349D01*
X-39058111Y-74938598D01*
X-39003456Y-74936935D01*
X-38939391Y-74935357D01*
X-38865002Y-74933863D01*
X-38779375Y-74932451D01*
X-38681595Y-74931117D01*
X-38570749Y-74929860D01*
X-38445921Y-74928677D01*
X-38306198Y-74927567D01*
X-38150666Y-74926526D01*
X-37978409Y-74925554D01*
X-37788514Y-74924646D01*
X-37580066Y-74923802D01*
X-37352152Y-74923018D01*
X-37103856Y-74922294D01*
X-36834264Y-74921625D01*
X-36542462Y-74921011D01*
X-36227536Y-74920448D01*
X-35888571Y-74919935D01*
X-35524653Y-74919469D01*
X-35134868Y-74919048D01*
X-34718302Y-74918670D01*
X-34274039Y-74918332D01*
X-33801166Y-74918033D01*
X-33298769Y-74917769D01*
X-32765932Y-74917539D01*
X-32201743Y-74917341D01*
X-31605286Y-74917172D01*
X-30975647Y-74917029D01*
X-30311912Y-74916911D01*
X-29613166Y-74916816D01*
X-28878496Y-74916741D01*
X-28106986Y-74916683D01*
X-27297723Y-74916641D01*
X-26449792Y-74916612D01*
X-25562279Y-74916594D01*
X-24634270Y-74916585D01*
X-23664849Y-74916583D01*
X-23655917Y-74916583D01*
X-22686432Y-74916585D01*
%TD*%
D11*
%TO.C,Ref\u002A\u002A*%
X-42095979Y-117313168D03*
X30256657Y-117313168D03*
X30256657Y-53064415D03*
X-42095979Y-53064415D03*
%TD*%
D12*
%TO.C,SW8*%
X17870000Y-66100000D03*
X28030000Y-66100000D03*
D13*
X22950000Y-66100000D03*
D14*
X26760000Y-68640000D03*
X20410000Y-71180000D03*
%TD*%
D15*
%TO.C,LEDBASE4*%
X-37450000Y-118930000D03*
X-37450000Y-115730000D03*
X-32550000Y-118930000D03*
X-32550000Y-115730000D03*
%TD*%
%TO.C,LEDBASE3*%
X20550000Y-118890000D03*
X20550000Y-115690000D03*
X25450000Y-118890000D03*
X25450000Y-115690000D03*
%TD*%
%TO.C,LEDBASE2*%
X20550000Y-54600000D03*
X20550000Y-51400000D03*
X25450000Y-54600000D03*
X25450000Y-51400000D03*
%TD*%
%TO.C,LEDBASE1*%
X-37450000Y-54600000D03*
X-37450000Y-51400000D03*
X-32550000Y-54600000D03*
X-32550000Y-51400000D03*
%TD*%
D12*
%TO.C,SW7*%
X-1350000Y-66090000D03*
X8810000Y-66090000D03*
D13*
X3730000Y-66090000D03*
D14*
X7540000Y-68630000D03*
X1190000Y-71170000D03*
%TD*%
D12*
%TO.C,SW6*%
X17860000Y-85330000D03*
X28020000Y-85330000D03*
D13*
X22940000Y-85330000D03*
D14*
X26750000Y-87870000D03*
X20400000Y-90410000D03*
%TD*%
D12*
%TO.C,SW5*%
X-1370000Y-85330000D03*
X8790000Y-85330000D03*
D13*
X3710000Y-85330000D03*
D14*
X7520000Y-87870000D03*
X1170000Y-90410000D03*
%TD*%
D12*
%TO.C,SW4*%
X17870000Y-104550000D03*
X28030000Y-104550000D03*
D13*
X22950000Y-104550000D03*
D14*
X26760000Y-107090000D03*
X20410000Y-109630000D03*
%TD*%
D12*
%TO.C,SW3*%
X-1360000Y-104550000D03*
X8800000Y-104550000D03*
D13*
X3720000Y-104550000D03*
D14*
X7530000Y-107090000D03*
X1180000Y-109630000D03*
%TD*%
D12*
%TO.C,SW2*%
X-20610000Y-104550000D03*
X-10450000Y-104550000D03*
D13*
X-15530000Y-104550000D03*
D14*
X-11720000Y-107090000D03*
X-18070000Y-109630000D03*
%TD*%
D12*
%TO.C,SW1*%
X-39840000Y-104540000D03*
X-29680000Y-104540000D03*
D13*
X-34760000Y-104540000D03*
D14*
X-30950000Y-107080000D03*
X-37300000Y-109620000D03*
%TD*%
D16*
%TO.C,J1*%
X-42850000Y-81820000D03*
X-42850000Y-84360000D03*
X-42850000Y-86900000D03*
D17*
X-42850000Y-89440000D03*
%TD*%
M02*
